# xmcd
#
# Track frame offsets:
#	150
#	12300
#	24456
#	44102
#	58314
#	71711
#	86193
#	100296
#	115629
#	131290
#	145758
#	161620
#	182962
#	202506
#	219736
#	236729
#	255995
#
# Disc length: 3577 seconds
#
# Revision: 3
# Processed by: cddbd v1.5.2PL0 Copyright (c) Steve Scherf et al.
# Submitted via: audiograbber 1.83.01
#
DISCID=f30df711
DTITLE=אומנים ישראלים - שרים לשי 2004
DYEAR=2004
DGENRE=ישראלי
TTITLE0=מלך העולם
TTITLE1=תנו לגדול בשקט
TTITLE2=עוף גוזל
TTITLE3=אם יוולד לי ילד
TTITLE4=יותר מזה אנחנו לא צריכים
TTITLE5=יחזקאל
TTITLE6=שעור מולדת
TTITLE7=דמעות של מלאכים
TTITLE8=חוזה לך ברח
TTITLE9=צעיר לנצח
TTITLE10=מכתב קטן
TTITLE11=כשהלב בוכה
TTITLE12=שמור על העולם ילד
TTITLE13=כלים שלובים
TTITLE14=כל הכוכבים
TTITLE15=רקמה אנושית אחת חיה
TTITLE16=חלומות
EXTD=אוסף שירים עבריים
EXTT0=
EXTT1=
EXTT2=
EXTT3=
EXTT4=
EXTT5=
EXTT6=
EXTT7=
EXTT8=
EXTT9=
EXTT10=
EXTT11=
EXTT12=
EXTT13=
EXTT14=
EXTT15=
EXTT16=
PLAYORDER=
